# xmcd
#
# Track frame offsets:
#	150
#	14415
#	24570
#	35976
#	45003
#	59068
#	67032
#	81498
#	93367
#	107045
#	117004
#	131140
#	143065
#	151997
#	167270
#	178309
#	187119
#	200878
#	212629
#	223985
#
# Disc length: 3206 seconds
#
# Revision: 6
# Processed by: cddbd v1.5.2PL0 Copyright (c) Steve Scherf et al.
# Submitted via: audiograbber 1.83.01
#
DISCID=310c8414
DTITLE=Various Artist - 20 Country Greats - Volume 7
DYEAR=1900
DGENRE=Oldies
TTITLE0=Carl Perkins - Redneck
TTITLE1=Bob Wills - Sooner Or Later
TTITLE2=Barbara Mandrell - Playing Around With Love
TTITLE3=Conway Twitty - I Wonder If You Told Her About Me
TTITLE4=Freddy Fender - La Bamba
TTITLE5=George Jones - Yes, I Know Why
TTITLE6=Barbara Fairchild - Baby Doll
TTITLE7=Ferlin Husly - If I Can't Have All Of You
TTITLE8=Stonewall Jackson   - Keep Off The Grass
TTITLE9=Ronnie McDowell - Watchin' Girls Go By
TTITLE10=Dottie West - What Are We Doin' In Love
TTITLE11=Johnny Paycheck - Something About You I Love
TTITLE12=Kitty Wells - I'll Reposess My Heart
TTITLE13=Merle Haggard - San Antonio Rose
TTITLE14=Mickey Gilley - World Of My Own
TTITLE15=Patsy Cline - Try Again
TTITLE16=Porter Wagoner - Memory Garden
TTITLE17=Ralph Stanley - Are You Proud Of America
TTITLE18=Razzy Bailey - She Wanted To
TTITLE19=Gail Davies - Someone Is Looking For Someone Like You
EXTD=
EXTT0=
EXTT1=
EXTT2=
EXTT3=
EXTT4=
EXTT5=
EXTT6=
EXTT7=
EXTT8=
EXTT9=
EXTT10=
EXTT11=
EXTT12=
EXTT13=
EXTT14=
EXTT15=
EXTT16=
EXTT17=
EXTT18=
EXTT19=
PLAYORDER=
